<svg width="32" height="32" viewBox="0 0 32 32" fill="none" xmlns="http://www.w3.org/2000/svg">
<path d="M16.5792 9.12626C16.3968 9.04306 16.1986 9 15.9981 9C15.7976 9 15.5995 9.04306 15.4171 9.12626L9.41761 11.8565C9.29339 11.9112 9.18777 12.001 9.11362 12.1147C9.03948 12.2284 9 12.3613 9 12.497C9 12.6328 9.03948 12.7656 9.11362 12.8794C9.18777 12.9931 9.29339 13.0828 9.41761 13.1376L15.4241 15.8748C15.6065 15.958 15.8046 16.001 16.0051 16.001C16.2056 16.001 16.4038 15.958 16.5862 15.8748L22.5926 13.1446C22.7169 13.0898 22.8225 13.0001 22.8966 12.8864C22.9708 12.7726 23.0103 12.6398 23.0103 12.504C23.0103 12.3683 22.9708 12.2354 22.8966 12.1217C22.8225 12.008 22.7169 11.9182 22.5926 11.8635L16.5792 9.12626Z" stroke="white" stroke-width="1.6" stroke-linecap="round" stroke-linejoin="round"/>
<path d="M11.8538 14.2507L9.40359 15.3708C9.28332 15.4273 9.18163 15.5169 9.1104 15.6291C9.03917 15.7413 9.00134 15.8714 9.00134 16.0043C9.00134 16.1372 9.03917 16.2673 9.1104 16.3795C9.18163 16.4917 9.28332 16.5813 9.40359 16.6379L15.4241 19.3751C15.6055 19.4572 15.8024 19.4997 16.0016 19.4997C16.2008 19.4997 16.3977 19.4572 16.5791 19.3751L22.5856 16.6449C22.7098 16.5901 22.8155 16.5004 22.8896 16.3866C22.9638 16.2729 23.0032 16.1401 23.0032 16.0043C23.0032 15.8685 22.9638 15.7357 22.8896 15.622C22.8155 15.5082 22.7098 15.4185 22.5856 15.3638L20.1354 14.2507" stroke="white" stroke-width="1.6" stroke-linecap="round" stroke-linejoin="round"/>
<path d="M11.8538 17.7509L9.40359 18.871C9.28332 18.9275 9.18163 19.0171 9.1104 19.1293C9.03917 19.2415 9.00134 19.3717 9.00134 19.5046C9.00134 19.6374 9.03917 19.7676 9.1104 19.8798C9.18163 19.992 9.28332 20.0816 9.40359 20.1381L15.4241 22.8753C15.6055 22.9575 15.8024 23 16.0016 23C16.2008 23 16.3977 22.9575 16.5791 22.8753L22.5856 20.1451C22.7098 20.0903 22.8155 20.0006 22.8896 19.8869C22.9638 19.7732 23.0032 19.6403 23.0032 19.5046C23.0032 19.3688 22.9638 19.236 22.8896 19.1222C22.8155 19.0085 22.7098 18.9188 22.5856 18.864L20.1354 17.7509" stroke="white" stroke-width="1.6" stroke-linecap="round" stroke-linejoin="round"/>
</svg>
